G04 #@! TF.GenerationSoftware,KiCad,Pcbnew,(5.0.0)*
G04 #@! TF.CreationDate,2018-10-08T16:27:30-04:00*
G04 #@! TF.ProjectId,USBPowerSwtich,555342506F7765725377746963682E6B,rev?*
G04 #@! TF.SameCoordinates,Original*
G04 #@! TF.FileFunction,Copper,L1,Top,Signal*
G04 #@! TF.FilePolarity,Positive*
%FSLAX46Y46*%
G04 Gerber Fmt 4.6, Leading zero omitted, Abs format (unit mm)*
G04 Created by KiCad (PCBNEW (5.0.0)) date 10/08/18 16:27:30*
%MOMM*%
%LPD*%
G01*
G04 APERTURE LIST*
G04 #@! TA.AperFunction,ComponentPad*
%ADD10C,1.300000*%
G04 #@! TD*
G04 #@! TA.AperFunction,ComponentPad*
%ADD11C,2.800000*%
G04 #@! TD*
G04 #@! TA.AperFunction,ComponentPad*
%ADD12C,2.600000*%
G04 #@! TD*
G04 #@! TA.AperFunction,ComponentPad*
%ADD13O,1.700000X1.700000*%
G04 #@! TD*
G04 #@! TA.AperFunction,ComponentPad*
%ADD14R,1.700000X1.700000*%
G04 #@! TD*
G04 #@! TA.AperFunction,ComponentPad*
%ADD15C,1.200000*%
G04 #@! TD*
G04 #@! TA.AperFunction,Conductor*
%ADD16C,1.000000*%
G04 #@! TD*
G04 #@! TA.AperFunction,Conductor*
%ADD17C,0.250000*%
G04 #@! TD*
G04 APERTURE END LIST*
D10*
G04 #@! TO.P,J1,4*
G04 #@! TO.N,GND*
X72100000Y-76500000D03*
G04 #@! TO.P,J1,3*
G04 #@! TO.N,Net-(J1-Pad3)*
X72100000Y-79000000D03*
G04 #@! TO.P,J1,2*
G04 #@! TO.N,Net-(J1-Pad2)*
X72100000Y-81000000D03*
G04 #@! TO.P,J1,1*
G04 #@! TO.N,VCC*
X72100000Y-83500000D03*
D11*
G04 #@! TO.P,J1,5*
G04 #@! TO.N,GND*
X70000000Y-85850000D03*
X70000000Y-74150000D03*
G04 #@! TD*
D12*
G04 #@! TO.P,J2,5*
G04 #@! TO.N,GND*
X95000000Y-85000000D03*
D10*
G04 #@! TO.P,J2,4*
X92330000Y-76500000D03*
G04 #@! TO.P,J2,3*
G04 #@! TO.N,Net-(J1-Pad3)*
X92330000Y-79000000D03*
G04 #@! TO.P,J2,2*
G04 #@! TO.N,Net-(J1-Pad2)*
X92330000Y-81000000D03*
G04 #@! TO.P,J2,1*
G04 #@! TO.N,Net-(J2-Pad1)*
X92330000Y-83500000D03*
D12*
G04 #@! TO.P,J2,5*
G04 #@! TO.N,GND*
X95000000Y-75000000D03*
G04 #@! TD*
D13*
G04 #@! TO.P,J3,4*
G04 #@! TO.N,VCC*
X78000000Y-83810000D03*
G04 #@! TO.P,J3,3*
G04 #@! TO.N,Net-(J1-Pad2)*
X78000000Y-81270000D03*
G04 #@! TO.P,J3,2*
G04 #@! TO.N,Net-(J1-Pad3)*
X78000000Y-78730000D03*
D14*
G04 #@! TO.P,J3,1*
G04 #@! TO.N,GND*
X78000000Y-76190000D03*
G04 #@! TD*
D15*
G04 #@! TO.P,SW1,2*
G04 #@! TO.N,VCC*
X85000000Y-85650000D03*
X85000000Y-82350000D03*
G04 #@! TO.P,SW1,3*
G04 #@! TO.N,Net-(J2-Pad1)*
X87500000Y-82350000D03*
X87500000Y-85650000D03*
G04 #@! TO.P,SW1,1*
G04 #@! TO.N,Net-(SW1-Pad1)*
X82500000Y-85650000D03*
X82500000Y-82350000D03*
G04 #@! TD*
D16*
G04 #@! TO.N,GND*
X77690000Y-76500000D02*
X78000000Y-76190000D01*
X72100000Y-76500000D02*
X77690000Y-76500000D01*
X92020000Y-76190000D02*
X92330000Y-76500000D01*
X78000000Y-76190000D02*
X92020000Y-76190000D01*
D17*
X71450000Y-76500000D02*
X72100000Y-76500000D01*
X70000000Y-75050000D02*
X71450000Y-76500000D01*
X93500000Y-76500000D02*
X95000000Y-75000000D01*
X92330000Y-76500000D02*
X93500000Y-76500000D01*
X95000000Y-79170000D02*
X95000000Y-85000000D01*
X92330000Y-76500000D02*
X95000000Y-79170000D01*
X70000000Y-84950000D02*
X70000000Y-85850000D01*
X68350000Y-83300000D02*
X70000000Y-84950000D01*
X68350000Y-76700000D02*
X68350000Y-83300000D01*
X70000000Y-75050000D02*
X68350000Y-76700000D01*
X70000000Y-74150000D02*
X70000000Y-75050000D01*
D16*
G04 #@! TO.N,VCC*
X77690000Y-83500000D02*
X78000000Y-83810000D01*
X72100000Y-83500000D02*
X77690000Y-83500000D01*
X83540000Y-83810000D02*
X85000000Y-82350000D01*
X78000000Y-83810000D02*
X83540000Y-83810000D01*
X83540000Y-84190000D02*
X85000000Y-85650000D01*
X83540000Y-83810000D02*
X83540000Y-84190000D01*
G04 #@! TO.N,Net-(J1-Pad2)*
X77730000Y-81000000D02*
X78000000Y-81270000D01*
X72100000Y-81000000D02*
X77730000Y-81000000D01*
X92200000Y-81000000D02*
X92330000Y-81000000D01*
X91700000Y-80500000D02*
X92200000Y-81000000D01*
X79972081Y-80500000D02*
X91700000Y-80500000D01*
X78000000Y-81270000D02*
X79202081Y-81270000D01*
X79202081Y-81270000D02*
X79972081Y-80500000D01*
G04 #@! TO.N,Net-(J1-Pad3)*
X77730000Y-79000000D02*
X78000000Y-78730000D01*
X72100000Y-79000000D02*
X77730000Y-79000000D01*
X92060000Y-78730000D02*
X92330000Y-79000000D01*
X78000000Y-78730000D02*
X92060000Y-78730000D01*
G04 #@! TO.N,Net-(J2-Pad1)*
X87500000Y-82350000D02*
X88650000Y-83500000D01*
X88650000Y-83500000D02*
X92330000Y-83500000D01*
X87500000Y-84650000D02*
X88650000Y-83500000D01*
X87500000Y-85650000D02*
X87500000Y-84650000D01*
G04 #@! TD*
M02*
