M48
;DRILL file {KiCad (5.0.0)} date 10/08/18 16:27:35
;FORMAT={-:-/ absolute / inch / decimal}
FMAT,2
INCH,TZ
T1C0.0354
T2C0.0394
T3C0.0906
T4C0.0984
T5C0.0472
%
G90
G05
M72
T1
X3.248Y-3.2421
X3.248Y-3.372
X3.3465Y-3.2421
X3.3465Y-3.372
X3.4449Y-3.2421
X3.4449Y-3.372
T2
X3.635Y-3.0118
X3.635Y-3.1102
X3.635Y-3.189
X3.635Y-3.2874
X3.0709Y-2.9996
X3.0709Y-3.0996
X3.0709Y-3.1996
X3.0709Y-3.2996
X2.8386Y-3.0118
X2.8386Y-3.1102
X2.8386Y-3.189
X2.8386Y-3.2874
T3
X3.7402Y-2.9528
X3.7402Y-3.3465
T4
X2.7559Y-2.9193
X2.7559Y-3.3799
T5
X2.7559Y-3.0591
X2.7559Y-3.2402
T0
M30
